# xmcd
#
# Track frame offsets:
#	150
#	15811
#	29997
#	47811
#	59718
#	76913
#	94281
#	113414
#	126221
#	140444
#	158368
#	173349
#	188383
#	203876
#	220699
#
# Disc length: 3170 seconds
#
# Revision: 0
# Processed by: cddbd v1.5.2PL0 Copyright (c) Steve Scherf et al.
# Submitted via: audiograbber 1.83.01
#
DISCID=bb0c600f
DTITLE=SC8234 - Sound choice (SC)
DYEAR=1900
DGENRE=Karaoke
TTITLE0=Alison Krauss - Every Time You Say Goodbye (SC)
TTITLE1=Alan Jackson - Love's Got A Hold On You (SC)
TTITLE2=Blackhawk - Every Once In A While (SC)
TTITLE3=Garth Brooks - Against The  (SC)
TTITLE4=Lorrie Morgan - Half Enough (SC)
TTITLE5=Joe Diffie - Next Thing Smokin' (SC)
TTITLE6=Reba McEntire - If I Had Only Known (SC)
TTITLE7=Chris LeDoux - Whatcha Gonna Do With A Cowboy (SC)
TTITLE8=Randy Travis - An Old Pair Of Shoes (SC)
TTITLE9=Martina McBride - That Wasn't Me (SC)
TTITLE10=Ricky Van Shelton - Lola's Love (SC)
TTITLE11=Suzy Bogguss - Drive South (SC)
TTITLE12=Hal Ketchum - Five O'Clock World (SC)
TTITLE13=Willie Nelson - Healing Hands Of Time (SC)
TTITLE14=Travis Tritt - Ten Feet Tall And Bulletproof (SC)
EXTD=
EXTT0=
EXTT1=
EXTT2=
EXTT3=
EXTT4=
EXTT5=
EXTT6=
EXTT7=
EXTT8=
EXTT9=
EXTT10=
EXTT11=
EXTT12=
EXTT13=
EXTT14=
PLAYORDER=
